# xmcd
#
# Track frame offsets:
#	150
#	12100
#	27200
#	39625
#	51775
#	63885
#	75910
#	86622
#	100912
#	115025
#	126525
#	138847
#	152310
#	164150
#	179470
#	192530
#	202112
#	214507
#	226442
#	240200
#	252050
#	264440
#
# Disc length: 3699
#
# Revision: 2
# Processed by: cddbd v1.5.1PL0 Copyright (c) Steve Scherf et al.
# Submitted via: ExactAudioCopy v0.90b4
# Normalized: r0:DSETVAR1,TDELIM( - ),TSWAP
#
DISCID=1f0e7116
DTITLE=Various Artist - The Golden Age Of Country Music - Disc 1
DYEAR=1900
DGENRE=Country
TTITLE0=Ernest Tubb - Walking The Floor Over You
TTITLE1=Jimmie Davis - You Are My Sunshine
TTITLE2=Elton Britt - There's A Star-Spangled Banner Waving Somewhere
TTITLE3=Gene Autry - Jingle Jangle Jingle
TTITLE4=Roy Acuff And His Smokey Mountain Boys - I'll Forgive You But I Can't Forget
TTITLE5=Bob Wills And His Texas Playboys - New San Antonio Rose
TTITLE6=Merle Travis - Divorce Me C.O.D.
TTITLE7=Eddy Arnold - That's How Much I Love You
TTITLE8=Red Foley - New Jole Blon (New Pretty Blonde)
TTITLE9=Zeke Manners And His Band/Curly Gibbs (Vocal) - Sioux City Sue
TTITLE10=Eddy Arnold - I'll Hold You In My Heart (Till I Can Hold You In My Arms)
TTITLE11=Merle Travis - So Round, So Firm, So Fully Packed
TTITLE12=Eddy Arnold - Bouquet Of Roses
TTITLE13=Arthur "Guitar Boogie" Smith And His Cracker-Jacks - Guitar Boogie
TTITLE14=Eddy Arnold - Anytime
TTITLE15=Hank Thompson And His Brazos Valley Boys - (I've Got A) Humpty Dumpty Heart
TTITLE16=Hank Williams - Lovesick Blues
TTITLE17=Eddy Arnold - I'm Throwing Rice At The Girl I Love
TTITLE18=Wayne Raney - Why Don't You Haul Off And Love Me?
TTITLE19=Eddy Arnold - Don't Rob Another Man's Castle
TTITLE20=Jimmy Wakely - I Love You So Much It Hurts
TTITLE21=Hank Williams - Wedding Bells
EXTD=
EXTT0=
EXTT1=
EXTT2=
EXTT3=
EXTT4=
EXTT5=
EXTT6=
EXTT7=
EXTT8=
EXTT9=
EXTT10=
EXTT11=
EXTT12=
EXTT13=
EXTT14=
EXTT15=
EXTT16=
EXTT17=
EXTT18=
EXTT19=
EXTT20=
EXTT21=
PLAYORDER=
